<svg width="284" height="284" viewBox="0 0 284 284" fill="none" xmlns="http://www.w3.org/2000/svg">
<rect width="284" height="284" rx="142" fill="url(#paint0_linear_0_28)"/>
<rect width="284" height="284" rx="142" stroke="black"/>
<path d="M84.583 142.254C84.583 131.404 84.7441 123.079 85.0664 117.278H85.0127L76.7949 116.15C76.3294 114.826 75.9714 113.375 75.7207 111.8C75.4701 110.188 75.3447 108.631 75.3447 107.127C75.3447 105.981 75.4342 104.728 75.6133 103.367C79.9818 101.899 85.693 100.771 92.7471 99.9834C99.8011 99.1598 106.533 98.748 112.942 98.748C118.421 98.748 123.13 99.1777 127.068 100.037C131.007 100.861 134.301 102.758 136.951 105.73C139.637 108.667 140.979 113.053 140.979 118.89C140.979 121.181 140.353 123.777 139.1 126.678C137.846 129.542 136.199 132.246 134.158 134.788C132.153 137.295 130.058 139.228 127.874 140.589C130.595 141.054 133.12 142.003 135.447 143.436C137.811 144.832 139.726 146.748 141.194 149.183C142.662 151.582 143.396 154.428 143.396 157.723C143.396 162.127 142.555 165.923 140.872 169.109C139.189 172.296 136.79 174.928 133.675 177.005C127.588 181.051 118.994 183.074 107.894 183.074C103.525 183.074 99.64 182.985 96.2383 182.806C92.8724 182.662 89.7572 182.376 86.8926 181.946C85.3529 173.639 84.583 160.408 84.583 142.254ZM115.145 138.87C116.076 136.256 116.863 132.944 117.508 128.934C118.188 124.887 118.6 121.593 118.743 119.051C118.564 118.729 117.651 118.46 116.004 118.245C114.357 117.994 112.226 117.869 109.612 117.869C108.789 117.869 107.41 117.923 105.477 118.03C105.19 126.087 104.76 133.32 104.188 139.729L109.612 139.3L115.145 138.87ZM112.459 169.002C115.467 169.002 117.615 168.877 118.904 168.626C119.799 168.089 120.587 167.122 121.268 165.726C121.984 164.329 122.521 162.807 122.879 161.16C123.237 159.477 123.416 157.973 123.416 156.648C122.771 154.786 119.567 153.855 113.802 153.855C111.367 153.855 108.574 154.017 105.423 154.339C104.563 154.446 103.919 154.5 103.489 154.5L103.328 162.342C103.292 163.13 103.257 164.043 103.221 165.081C103.185 166.119 103.167 167.283 103.167 168.572C105.53 168.859 108.108 169.002 110.901 169.002H112.459ZM148.553 168.411C148.553 165.153 149.215 162.02 150.54 159.012C151.149 159.012 152.098 159.137 153.387 159.388C154.676 159.603 156.036 159.889 157.469 160.247C157.29 152.549 157.2 145.029 157.2 137.688C157.2 129.775 157.343 123.025 157.63 117.439H157.576L157.63 116.795L148.875 115.667C148.338 113.483 147.98 111.674 147.801 110.242C147.622 108.774 147.55 107.091 147.586 105.193C148.732 103.904 150.415 102.776 152.635 101.81C154.891 100.807 157.308 100.055 159.886 99.5537C162.5 99.0166 164.881 98.748 167.029 98.748C171.147 98.748 174.352 99.5716 176.644 101.219C178.971 102.83 180.296 105.408 180.618 108.953C180.726 110.35 180.779 111.871 180.779 113.519C180.779 118.961 180.296 125.407 179.329 132.854C178.362 140.302 177.073 149.004 175.462 158.958L175.032 161.751L188.729 162.503L194.314 144.671C195.997 144.599 197.913 144.725 200.062 145.047C202.246 145.369 204.126 145.817 205.701 146.39C206.346 148.073 206.937 150.758 207.474 154.446C208.047 158.099 208.333 161.679 208.333 165.188C208.333 171.025 207.474 175.125 205.755 177.488C204.896 178.634 203.696 179.637 202.156 180.496C200.652 181.32 199.059 181.946 197.376 182.376C195.729 182.841 194.243 183.074 192.918 183.074C190.805 183.074 188.335 182.627 185.506 181.731C182.677 180.8 179.902 179.637 177.181 178.24C174.459 176.808 172.221 175.376 170.467 173.943C168.855 176.736 166.993 178.903 164.881 180.442C162.768 181.982 160.136 182.859 156.985 183.074C155.446 182.824 154.031 182.018 152.742 180.657C151.453 179.297 150.433 177.542 149.681 175.394C148.929 173.245 148.553 170.918 148.553 168.411Z" fill="white"/>
<defs>
<linearGradient id="paint0_linear_0_28" x1="284" y1="284" x2="0" y2="0" gradientUnits="userSpaceOnUse">
<stop offset="0.13627" stop-color="#692F00"/>
<stop offset="1" stop-color="#FF7100"/>
</linearGradient>
</defs>
</svg>
