<svg width="284" height="284" viewBox="0 0 284 284" fill="none" xmlns="http://www.w3.org/2000/svg">
<rect width="284" height="284" rx="142" fill="url(#paint0_linear_0_12)"/>
<rect width="284" height="284" rx="142" stroke="black"/>
<path d="M72.9277 168.841C72.9277 165.654 73.5902 162.557 74.915 159.549C75.5238 159.549 76.4727 159.674 77.7617 159.925C79.0866 160.14 80.4652 160.426 81.8975 160.784C81.6826 151.116 81.5752 143.185 81.5752 136.99C81.5752 129.292 81.7184 122.721 82.0049 117.278L73.7334 116.15C73.2679 114.826 72.9098 113.375 72.6592 111.8C72.4085 110.188 72.2832 108.631 72.2832 107.127C72.2832 105.981 72.3727 104.728 72.5518 103.367C76.8128 101.756 82.4167 100.592 89.3633 99.876C96.3457 99.124 103.382 98.748 110.472 98.748C117.168 98.748 122.02 99.0524 125.027 99.6611C126.961 100.843 128.644 102.042 130.076 103.26C131.544 104.441 132.941 105.91 134.266 107.664C134.266 110.171 134.015 112.892 133.514 115.828C133.048 118.729 132.386 121.396 131.526 123.831C130.703 126.266 129.808 128.021 128.841 129.095C128.017 129.489 127.104 129.793 126.102 130.008C125.099 130.187 123.864 130.276 122.396 130.276C121.106 130.276 119.996 130.169 119.065 129.954C118.17 129.703 117.311 129.345 116.487 128.88L114.661 117.171C112.405 116.813 109.72 116.634 106.604 116.634C105.745 116.634 104.886 116.688 104.026 116.795C103.883 121.987 103.149 129.059 101.824 138.011C109.773 136.686 116.559 135.719 122.181 135.11C123.613 137.295 124.329 139.962 124.329 143.113C124.329 145.19 124.043 147.195 123.47 149.129C122.897 151.062 122.27 152.405 121.59 153.157C120.086 153.408 118.296 153.533 116.219 153.533C113.533 153.533 110.74 153.3 107.84 152.835C104.975 152.369 102.29 151.689 99.7832 150.794L99.085 155.359C98.6553 157.902 98.2793 160.408 97.957 162.879L131.956 160.892C132.493 161.393 132.941 162.396 133.299 163.899C133.693 165.403 133.89 167.05 133.89 168.841C133.89 171.705 133.317 174.212 132.171 176.36C131.025 178.509 129.503 180.174 127.605 181.355C125.743 182.501 123.738 183.074 121.59 183.074C119.441 183.074 116.505 182.609 112.781 181.678C109.093 180.711 105.494 179.511 101.985 178.079C98.512 176.647 95.9518 175.268 94.3047 173.943C92.6576 176.808 90.8493 178.992 88.8799 180.496C86.9463 182 84.4398 182.859 81.3604 183.074C79.8206 182.824 78.4062 182.036 77.1172 180.711C75.8281 179.386 74.8076 177.685 74.0557 175.608C73.3037 173.532 72.9277 171.276 72.9277 168.841ZM140.12 164.759C140.442 164.866 141.123 165.117 142.161 165.511C143.235 165.869 144.417 166.173 145.706 166.424V115.828L137.273 112.981C136.45 111.048 136.038 108.828 136.038 106.321C136.038 104.28 136.36 102.454 137.005 100.843C139.583 100.162 142.68 99.6432 146.297 99.2852C149.949 98.8913 153.476 98.6943 156.878 98.6943C161.927 98.6943 166.385 99.0703 170.252 99.8223C172.042 103.296 174.692 109.83 178.201 119.427C181.746 129.023 186.007 141.609 190.984 157.186L191.897 157.078C190.859 148.234 189.821 137.868 188.782 125.979C187.78 114.056 187.278 105.892 187.278 101.487C189.14 100.628 191.217 99.9655 193.509 99.5C195.8 98.9987 197.913 98.748 199.847 98.748C202.998 98.748 206.023 99.3926 208.924 100.682L203.714 168.572C205.576 171.258 206.74 174.409 207.205 178.025C205.737 179.637 203.499 180.89 200.491 181.785C197.519 182.645 194.35 183.074 190.984 183.074C188.37 183.074 185.989 182.806 183.841 182.269C181.728 181.731 180.081 180.908 178.899 179.798C178.935 177.112 179.168 174.66 179.598 172.439C176.912 167.068 174.316 161.16 171.81 154.715C169.339 148.234 166.188 139.64 162.356 128.934L159.993 122.381L159.671 122.435C160.423 128.021 161.229 136.256 162.088 147.142C162.947 157.991 163.377 165.923 163.377 170.936C163.377 174.946 162.177 177.972 159.778 180.013C157.415 182.054 153.709 183.074 148.66 183.074C147.085 183.074 145.402 182.77 143.611 182.161C141.821 181.552 140.192 180.783 138.724 179.852C137.291 178.885 136.289 177.954 135.716 177.059C135.716 174.48 136.11 172.028 136.897 169.7C137.685 167.373 138.759 165.726 140.12 164.759Z" fill="white"/>
<defs>
<linearGradient id="paint0_linear_0_12" x1="284" y1="284" x2="0" y2="0" gradientUnits="userSpaceOnUse">
<stop offset="0.266" stop-color="#54007A"/>
<stop offset="0.811" stop-color="#CA56FF"/>
</linearGradient>
</defs>
</svg>
