<svg width="284" height="284" viewBox="0 0 284 284" fill="none" xmlns="http://www.w3.org/2000/svg">
<rect width="284" height="284" rx="142" fill="url(#paint0_linear_0_48)"/>
<rect width="284" height="284" rx="142" stroke="black"/>
<path d="M49.2754 147.678C49.2754 142.958 49.373 138.042 49.5684 132.932C49.7311 127.561 49.9915 122.824 50.3496 118.723H50.252L44.7344 117.697C44.3763 116.102 44.1159 114.751 43.9531 113.645C43.8229 112.505 43.7578 111.333 43.7578 110.129C43.7578 109.283 43.7741 108.632 43.8066 108.176C44.4902 107.297 45.5319 106.418 46.9316 105.539C48.3639 104.628 50.0241 103.863 51.9121 103.244C53.8001 102.626 55.7533 102.316 57.7715 102.316C61.9056 102.316 64.9818 103.374 67 105.49C69.0182 107.606 69.9297 110.764 69.7344 114.963L69.5879 119.211C69.4577 126.34 69.1647 132.134 68.709 136.594H85.3105C85.4082 130.116 85.7012 124.143 86.1895 118.674H86.0918L79.1094 117.648C78.7513 116.053 78.4909 114.702 78.3281 113.596C78.1979 112.456 78.1328 111.285 78.1328 110.08C78.1328 109.234 78.1491 108.583 78.1816 108.127C78.8652 107.281 80.0371 106.402 81.6973 105.49C83.3574 104.579 85.2617 103.814 87.4102 103.195C89.5911 102.577 91.7396 102.268 93.8555 102.268C97.9896 102.268 101.147 103.342 103.328 105.49C105.542 107.606 106.648 110.747 106.648 114.914C106.648 126.568 104.842 142.893 101.229 163.889L108.455 160.764C110.929 162.912 112.345 165.809 112.703 169.455C112.703 169.683 111.938 170.627 110.408 172.287C108.911 173.915 106.941 175.445 104.5 176.877C102.091 178.277 99.3405 178.977 96.248 178.977C92.9603 178.977 90.2422 178.098 88.0938 176.34C85.9779 174.582 84.9362 171.506 84.9688 167.111V163.938C84.9688 158.534 85.0827 154.042 85.3105 150.461C84.5618 150.526 83.4225 150.559 81.8926 150.559C79.6465 150.559 76.3424 150.363 71.9805 149.973C69.8971 149.777 68.416 149.647 67.5371 149.582C67.6348 152.87 67.8789 156.141 68.2695 159.396C68.6602 162.619 69.1647 166.265 69.7832 170.334C70.1738 172.906 70.4505 174.842 70.6133 176.145C69.2786 176.958 67.1628 177.626 64.2656 178.146C61.3685 178.667 58.9108 178.928 56.8926 178.928C55.8835 178.928 54.9232 178.846 54.0117 178.684C53.1328 178.521 52.1562 178.277 51.082 177.951C49.8776 170.432 49.2754 160.34 49.2754 147.678ZM119.881 172.971C119.881 169.585 119.832 165.891 119.734 161.887C119.637 157.85 119.572 155.197 119.539 153.928C119.279 145.464 119.148 139.1 119.148 134.836C119.148 128.553 119.311 123.182 119.637 118.723L113.143 117.697C112.719 115.939 112.426 114.458 112.264 113.254C112.068 112.049 111.971 110.731 111.971 109.299V108.176C112.654 107.329 113.745 106.451 115.242 105.539C116.772 104.628 118.546 103.863 120.564 103.244C122.615 102.626 124.682 102.316 126.766 102.316C130.607 102.316 133.667 103.114 135.945 104.709C138.224 106.304 139.363 108.794 139.363 112.18C139.363 119.276 138.973 131.125 138.191 147.727L141.219 147.043C143.27 143.365 145.548 138.531 148.055 132.541C150.594 126.551 152.254 121.913 153.035 118.625L146.98 117.6C146.557 115.842 146.248 114.361 146.053 113.156C145.89 111.952 145.809 110.633 145.809 109.201V108.078C146.46 107.264 147.615 106.402 149.275 105.49C150.968 104.546 152.905 103.765 155.086 103.146C157.267 102.528 159.415 102.219 161.531 102.219C163.842 102.219 165.942 102.609 167.83 103.391C169.718 104.172 171.215 105.376 172.322 107.004C173.462 108.632 174.031 110.633 174.031 113.01C174.031 117.111 172.29 122.043 168.807 127.805C165.356 133.566 161.206 139.344 156.355 145.139C157.951 148.459 159.66 151.584 161.482 154.514C163.305 157.443 164.917 159.657 166.316 161.154C167.033 160.796 167.7 160.324 168.318 159.738C168.969 159.152 169.799 158.306 170.809 157.199L171.883 156.076L177.889 160.617V161.691C177.889 166.867 176.587 171.034 173.982 174.191C171.411 177.349 167.505 178.928 162.264 178.928C160.311 178.928 158.455 178.651 156.697 178.098C154.256 177.349 152.14 175.868 150.35 173.654C148.592 171.441 147.192 168.885 146.15 165.988C145.141 163.059 144.441 160.048 144.051 156.955C142.423 157.346 140.291 157.622 137.654 157.785C137.361 163.352 136.987 169.715 136.531 176.877C133.895 178.309 130.965 179.025 127.742 179.025C124.943 179.025 122.306 178.521 119.832 177.512L119.881 172.971ZM184.041 172.971C184.041 169.585 183.992 165.891 183.895 161.887C183.797 157.85 183.732 155.197 183.699 153.928C183.439 145.464 183.309 139.1 183.309 134.836C183.309 128.553 183.471 123.182 183.797 118.723L177.303 117.697C176.88 115.939 176.587 114.458 176.424 113.254C176.229 112.049 176.131 110.731 176.131 109.299V108.176C176.814 107.329 177.905 106.451 179.402 105.539C180.932 104.628 182.706 103.863 184.725 103.244C186.775 102.626 188.842 102.316 190.926 102.316C194.767 102.316 197.827 103.114 200.105 104.709C202.384 106.304 203.523 108.794 203.523 112.18C203.523 119.276 203.133 131.125 202.352 147.727L205.379 147.043C207.43 143.365 209.708 138.531 212.215 132.541C214.754 126.551 216.414 121.913 217.195 118.625L211.141 117.6C210.717 115.842 210.408 114.361 210.213 113.156C210.05 111.952 209.969 110.633 209.969 109.201V108.078C210.62 107.264 211.775 106.402 213.436 105.49C215.128 104.546 217.065 103.765 219.246 103.146C221.427 102.528 223.576 102.219 225.691 102.219C228.003 102.219 230.102 102.609 231.99 103.391C233.878 104.172 235.376 105.376 236.482 107.004C237.622 108.632 238.191 110.633 238.191 113.01C238.191 117.111 236.45 122.043 232.967 127.805C229.516 133.566 225.366 139.344 220.516 145.139C222.111 148.459 223.82 151.584 225.643 154.514C227.465 157.443 229.077 159.657 230.477 161.154C231.193 160.796 231.86 160.324 232.479 159.738C233.13 159.152 233.96 158.306 234.969 157.199L236.043 156.076L242.049 160.617V161.691C242.049 166.867 240.747 171.034 238.143 174.191C235.571 177.349 231.665 178.928 226.424 178.928C224.471 178.928 222.615 178.651 220.857 178.098C218.416 177.349 216.3 175.868 214.51 173.654C212.752 171.441 211.352 168.885 210.311 165.988C209.301 163.059 208.602 160.048 208.211 156.955C206.583 157.346 204.451 157.622 201.814 157.785C201.521 163.352 201.147 169.715 200.691 176.877C198.055 178.309 195.125 179.025 191.902 179.025C189.103 179.025 186.466 178.521 183.992 177.512L184.041 172.971Z" fill="white"/>
<defs>
<linearGradient id="paint0_linear_0_48" x1="284" y1="284" x2="0" y2="0" gradientUnits="userSpaceOnUse">
<stop offset="0.231" stop-color="#073F72"/>
<stop offset="1" stop-color="#238DED"/>
</linearGradient>
</defs>
</svg>
