<svg width="284" height="284" viewBox="0 0 284 284" fill="none" xmlns="http://www.w3.org/2000/svg">
<rect width="284" height="284" rx="142" fill="url(#paint0_linear_0_52)"/>
<rect width="284" height="284" rx="142" stroke="black"/>
<path d="M65.9746 175.607C65.9746 174.208 65.9095 170.057 65.7793 163.156C65.5189 153.065 65.3887 144.341 65.3887 136.984C65.3887 129.79 65.5189 123.703 65.7793 118.723L57.8203 117.697C57.332 115.712 57.0065 114.068 56.8438 112.766C56.681 111.431 56.6159 109.901 56.6484 108.176C57.2995 107.362 58.5039 106.499 60.2617 105.588C62.0521 104.644 64.0703 103.863 66.3164 103.244C68.5951 102.626 70.7923 102.316 72.9082 102.316C76.6842 102.316 79.7604 103.163 82.1367 104.855C84.5456 106.548 85.8151 108.99 85.9453 112.18C86.0104 114.068 86.043 115.679 86.043 117.014C86.043 123.166 85.7826 130.588 85.2617 139.279C84.7409 147.938 84.041 158.176 83.1621 169.992L82.6738 176.877C80.1022 178.309 77.1725 179.025 73.8848 179.025C71.0853 179.025 68.4486 178.521 65.9746 177.512V175.607ZM93.6113 167.16C93.6113 165.5 93.888 163.791 94.4414 162.033C97.2409 161.252 99.8613 160.878 102.303 160.91C101.684 154.562 101.163 147.629 100.74 140.109C100.317 132.557 100.024 125.591 99.8613 119.211H99.8125L92.8301 118.186C92.4069 116.981 92.0814 115.646 91.8535 114.182C91.6257 112.717 91.5117 111.301 91.5117 109.934C91.5117 108.892 91.5931 107.753 91.7559 106.516C95.2389 104.986 100.708 103.911 108.162 103.293C115.617 102.642 123.022 102.316 130.379 102.316C135.327 102.316 139.526 102.707 142.977 103.488C146.427 104.27 149.308 106.044 151.619 108.811C153.963 111.545 155.135 115.646 155.135 121.115C155.135 131.239 152.693 144.52 147.811 160.959C146.997 163.661 146.085 166.086 145.076 168.234C144.067 170.383 142.781 172.238 141.219 173.801C139.884 175.298 138.501 176.438 137.068 177.219C135.669 177.967 133.976 178.342 131.99 178.342C130.981 178.342 129.614 178.179 127.889 177.854C125.74 177.43 123.836 176.893 122.176 176.242C120.516 175.559 119.132 174.875 118.025 174.191C116.951 173.508 115.665 172.645 114.168 171.604C113.517 172.548 112.426 173.589 110.896 174.729C109.399 175.868 107.739 176.844 105.916 177.658C104.093 178.472 102.4 178.911 100.838 178.977C98.5918 178.13 96.8177 176.633 95.5156 174.484C94.2461 172.303 93.6113 169.862 93.6113 167.16ZM131.209 160.52C132.12 156.027 132.837 150.819 133.357 144.895C133.878 138.938 134.318 132.508 134.676 125.607L134.871 122.141C134.676 121.783 133.878 121.424 132.479 121.066C131.111 120.708 129.305 120.529 127.059 120.529L123.25 120.48C121.427 120.48 119.962 120.562 118.855 120.725C118.855 122.092 118.872 123.247 118.904 124.191C119.002 129.855 119.051 134.917 119.051 139.377C119.051 144.553 119.002 151.91 118.904 161.447C123.169 161.447 127.27 161.138 131.209 160.52ZM163.68 147.678C163.68 142.958 163.777 138.042 163.973 132.932C164.135 127.561 164.396 122.824 164.754 118.723H164.656L159.139 117.697C158.781 116.102 158.52 114.751 158.357 113.645C158.227 112.505 158.162 111.333 158.162 110.129C158.162 109.283 158.178 108.632 158.211 108.176C158.895 107.297 159.936 106.418 161.336 105.539C162.768 104.628 164.428 103.863 166.316 103.244C168.204 102.626 170.158 102.316 172.176 102.316C176.31 102.316 179.386 103.374 181.404 105.49C183.423 107.606 184.334 110.764 184.139 114.963L183.992 119.211C183.862 126.34 183.569 132.134 183.113 136.594H199.715C199.812 130.116 200.105 124.143 200.594 118.674H200.496L193.514 117.648C193.156 116.053 192.895 114.702 192.732 113.596C192.602 112.456 192.537 111.285 192.537 110.08C192.537 109.234 192.553 108.583 192.586 108.127C193.27 107.281 194.441 106.402 196.102 105.49C197.762 104.579 199.666 103.814 201.814 103.195C203.995 102.577 206.144 102.268 208.26 102.268C212.394 102.268 215.551 103.342 217.732 105.49C219.946 107.606 221.053 110.747 221.053 114.914C221.053 126.568 219.246 142.893 215.633 163.889L222.859 160.764C225.333 162.912 226.749 165.809 227.107 169.455C227.107 169.683 226.342 170.627 224.812 172.287C223.315 173.915 221.346 175.445 218.904 176.877C216.495 178.277 213.745 178.977 210.652 178.977C207.365 178.977 204.646 178.098 202.498 176.34C200.382 174.582 199.34 171.506 199.373 167.111V163.938C199.373 158.534 199.487 154.042 199.715 150.461C198.966 150.526 197.827 150.559 196.297 150.559C194.051 150.559 190.747 150.363 186.385 149.973C184.301 149.777 182.82 149.647 181.941 149.582C182.039 152.87 182.283 156.141 182.674 159.396C183.064 162.619 183.569 166.265 184.188 170.334C184.578 172.906 184.855 174.842 185.018 176.145C183.683 176.958 181.567 177.626 178.67 178.146C175.773 178.667 173.315 178.928 171.297 178.928C170.288 178.928 169.327 178.846 168.416 178.684C167.537 178.521 166.561 178.277 165.486 177.951C164.282 170.432 163.68 160.34 163.68 147.678Z" fill="white"/>
<defs>
<linearGradient id="paint0_linear_0_52" x1="284" y1="284" x2="0" y2="0" gradientUnits="userSpaceOnUse">
<stop offset="0.231" stop-color="#86190F"/>
<stop offset="1" stop-color="#FF1500"/>
</linearGradient>
</defs>
</svg>
