<svg width="284" height="284" viewBox="0 0 284 284" fill="none" xmlns="http://www.w3.org/2000/svg">
<rect width="284" height="284" rx="142" fill="url(#paint0_linear_0_40)"/>
<rect width="284" height="284" rx="142" stroke="black"/>
<path d="M38.3672 158.353C38.3672 156.279 38.7887 154.285 39.6318 152.371C40.0192 152.371 40.623 152.451 41.4434 152.61C42.2637 152.747 43.1296 152.929 44.041 153.157C43.9271 148.258 43.8701 143.473 43.8701 138.802C43.8701 133.766 43.9613 129.471 44.1436 125.916H44.1094L44.1436 125.506L38.5723 124.788C38.2305 123.398 38.0026 122.247 37.8887 121.336C37.7747 120.402 37.7292 119.331 37.752 118.123C38.4811 117.303 39.5521 116.585 40.9648 115.97C42.4004 115.332 43.9385 114.853 45.5791 114.534C47.2425 114.192 48.7578 114.021 50.125 114.021C52.7454 114.021 54.7848 114.546 56.2432 115.594C57.7243 116.619 58.5674 118.26 58.7725 120.516C58.8408 121.404 58.875 122.373 58.875 123.421C58.875 126.884 58.5674 130.986 57.9521 135.726C57.3369 140.465 56.5166 146.002 55.4912 152.337L55.2178 154.114L63.9336 154.593L67.4883 143.245C68.5592 143.2 69.7783 143.279 71.1455 143.484C72.5355 143.689 73.7318 143.974 74.7344 144.339C75.1445 145.41 75.5205 147.119 75.8623 149.466C76.2269 151.79 76.4092 154.069 76.4092 156.302C76.4092 160.016 75.8623 162.625 74.7686 164.129C74.2217 164.858 73.4583 165.496 72.4785 166.043C71.5215 166.567 70.5075 166.966 69.4365 167.239C68.3883 167.535 67.4427 167.684 66.5996 167.684C65.2552 167.684 63.6829 167.399 61.8828 166.829C60.0827 166.237 58.3167 165.496 56.585 164.607C54.8532 163.696 53.429 162.785 52.3125 161.873C51.2871 163.65 50.1022 165.029 48.7578 166.009C47.4134 166.989 45.7386 167.547 43.7334 167.684C42.7536 167.524 41.8535 167.011 41.0332 166.146C40.2129 165.28 39.5635 164.163 39.085 162.796C38.6064 161.429 38.3672 159.948 38.3672 158.353ZM78.1523 137.537C77.765 135.874 77.5143 134.655 77.4004 133.88C77.2865 133.105 77.2295 131.932 77.2295 130.359C78.5739 129.083 80.0208 128.126 81.5703 127.488C83.1198 126.827 84.863 126.497 86.7998 126.497C92.6787 126.497 95.6182 129.448 95.6182 135.35C95.6182 136.922 95.4701 138.745 95.1738 140.818C94.9004 142.892 94.5016 145.501 93.9775 148.646C93.9092 149.056 93.7269 150.161 93.4307 151.961C93.1344 153.761 92.9294 155.265 92.8154 156.473C93.2028 156.883 93.6813 157.168 94.251 157.327C94.5244 157.327 95.151 156.769 96.1309 155.652C97.1335 154.513 98.2044 153.134 99.3438 151.517C100.483 149.899 101.417 148.406 102.146 147.039C102.329 143.781 102.579 140.784 102.898 138.05L99.3096 137.332C99.0133 136.193 98.8083 135.19 98.6943 134.324C98.5804 133.458 98.5234 132.535 98.5234 131.556L98.5576 130.599C99.3779 129.55 100.608 128.605 102.249 127.762C103.89 126.919 105.77 126.497 107.889 126.497C113.768 126.497 116.707 129.448 116.707 135.35C116.707 137.742 116.308 140.898 115.511 144.817C114.713 148.714 113.779 152.656 112.708 156.644L116.639 154.935C117.299 155.641 117.881 156.507 118.382 157.532C118.906 158.535 119.236 159.697 119.373 161.019C119.054 161.702 118.359 162.579 117.288 163.65C116.217 164.699 114.907 165.633 113.357 166.453C111.808 167.273 110.19 167.684 108.504 167.684C106.613 167.684 105.154 167.125 104.129 166.009C103.126 164.869 102.625 163.423 102.625 161.668C102.625 161.212 102.739 160.278 102.967 158.865C103.217 157.452 103.423 156.473 103.582 155.926L102.625 155.618C101.486 159.606 99.9134 162.614 97.9082 164.642C95.9258 166.67 93.6585 167.684 91.1064 167.684C87.4378 167.684 84.8516 166.476 83.3477 164.061C81.8438 161.622 81.0918 158.603 81.0918 155.003C81.0918 148.235 81.3197 142.584 81.7754 138.05L78.1523 137.537ZM125.491 155.105C125.491 151.391 125.537 148.589 125.628 146.697C125.719 144.783 125.958 141.98 126.346 138.289L122.381 137.776C121.902 136.295 121.583 134.974 121.424 133.812C121.287 132.649 121.219 131.146 121.219 129.3C121.583 128.981 122.187 128.605 123.03 128.172C123.896 127.716 124.922 127.329 126.106 127.01C127.291 126.668 128.488 126.497 129.695 126.497C132.452 126.497 134.401 127.09 135.54 128.274C136.702 129.459 137.283 131.237 137.283 133.606C137.283 134.928 137.09 136.717 136.702 138.973C136.064 142.596 135.745 144.498 135.745 144.681C135.745 144.795 135.825 144.909 135.984 145.022C136.144 145.114 136.315 145.159 136.497 145.159C136.702 145.159 136.839 145.079 136.907 144.92C137.819 141.297 138.73 138.266 139.642 135.828C140.553 133.39 141.932 131.225 143.777 129.334C145.623 127.443 148.016 126.497 150.955 126.497C154.601 126.497 157.221 127.614 158.816 129.847C160.411 132.057 161.209 134.848 161.209 138.221C161.209 141.229 160.856 144.134 160.149 146.937C159.443 149.716 158.566 152.622 157.518 155.652C157.563 155.538 157.404 155.983 157.039 156.985L157.107 157.054L162.098 155.003C163.875 156.53 164.912 158.558 165.208 161.087C165.208 161.246 164.695 161.896 163.67 163.035C162.667 164.174 161.334 165.234 159.671 166.214C158.007 167.194 156.093 167.684 153.929 167.684C151.764 167.684 149.998 167.103 148.631 165.94C147.264 164.778 146.58 162.796 146.58 159.993C146.58 157.76 146.671 154.775 146.854 151.038C147.036 147.301 147.218 144.293 147.4 142.015C146.808 141.377 146.079 141.035 145.213 140.989C144.415 142.015 143.242 144.065 141.692 147.142C140.143 150.218 139.049 152.519 138.411 154.046C138.366 154.365 138.343 154.673 138.343 154.969C138.343 156.108 138.514 157.646 138.855 159.583C139.197 161.497 139.619 163.286 140.12 164.949C139.71 165.724 138.867 166.373 137.591 166.897C136.315 167.422 134.743 167.684 132.874 167.684C131.188 167.684 129.832 167.547 128.807 167.273C127.804 167 127.098 166.715 126.688 166.419C126.277 166.1 126.072 165.906 126.072 165.838C126.049 165.633 125.993 165.097 125.901 164.231C125.81 163.343 125.719 162.112 125.628 160.54C125.537 158.945 125.491 157.133 125.491 155.105ZM167.601 147.142C167.601 143.2 168.261 139.679 169.583 136.58C170.905 133.481 172.944 131.032 175.701 129.231C178.481 127.409 181.945 126.497 186.092 126.497C187.505 126.497 189.122 126.588 190.945 126.771C192.791 126.93 194.557 127.181 196.243 127.522L196.927 128.001C197.952 128.707 198.704 129.277 199.183 129.71C199.684 130.12 200.208 130.701 200.755 131.453C200.755 132.684 200.584 134.381 200.242 136.546C199.923 138.688 199.513 140.682 199.012 142.527C198.51 144.373 198.032 145.558 197.576 146.082C196.824 146.469 195.605 146.663 193.919 146.663C193.099 146.663 192.324 146.606 191.595 146.492C190.888 146.355 190.353 146.185 189.988 145.979L189.271 139.656C188.929 139.269 188.143 138.961 186.912 138.733C185.704 138.483 184.588 138.357 183.562 138.357C183.243 138.357 182.947 138.38 182.674 138.426C182.15 139.497 181.751 140.864 181.478 142.527C181.204 144.191 181.067 145.888 181.067 147.62C181.067 150.127 181.478 152.257 182.298 154.012C183.118 155.743 184.793 156.609 187.322 156.609C188.576 156.609 189.806 156.404 191.014 155.994C192.244 155.584 193.794 154.957 195.662 154.114C196.437 153.75 197.018 153.488 197.405 153.328C198.317 154.24 199.035 155.197 199.559 156.199C200.083 157.202 200.424 158.489 200.584 160.062C199.126 161.771 197.075 163.468 194.432 165.154C191.811 166.84 188.746 167.684 185.237 167.684C181.5 167.684 178.299 166.784 175.633 164.983C172.99 163.16 170.984 160.7 169.617 157.601C168.273 154.479 167.601 150.993 167.601 147.142ZM206.941 144.783C206.941 134.21 207.146 126.941 207.557 122.977L203.694 122.293C203.147 120.197 202.874 117.941 202.874 115.525C203.216 115.092 203.854 114.557 204.788 113.919C205.722 113.281 206.805 112.723 208.035 112.244C209.288 111.766 210.53 111.526 211.761 111.526C214.563 111.526 216.648 112.244 218.016 113.68C219.383 115.115 220.066 117.314 220.066 120.276C220.066 121.575 219.952 123.672 219.725 126.565C219.497 129.437 219.166 132.524 218.733 135.828C218.3 139.109 217.799 142.037 217.229 144.612C217.229 144.749 217.309 144.874 217.469 144.988C217.628 145.102 217.799 145.159 217.981 145.159C218.187 145.159 218.323 145.079 218.392 144.92C219.303 141.297 220.215 138.266 221.126 135.828C222.037 133.39 223.416 131.225 225.262 129.334C227.107 127.443 229.5 126.497 232.439 126.497C236.085 126.497 238.706 127.614 240.301 129.847C241.896 132.057 242.693 134.848 242.693 138.221C242.693 141.229 242.34 144.134 241.634 146.937C240.927 149.716 240.05 152.622 239.002 155.652C239.048 155.538 238.888 155.983 238.523 156.985L238.592 157.054L243.65 154.935C245.428 156.461 246.465 158.489 246.761 161.019C246.761 161.178 246.248 161.839 245.223 163.001C244.197 164.14 242.841 165.211 241.155 166.214C239.492 167.194 237.578 167.684 235.413 167.684C233.248 167.684 231.482 167.103 230.115 165.94C228.748 164.778 228.064 162.796 228.064 159.993C228.064 157.76 228.156 154.775 228.338 151.038C228.52 147.301 228.702 144.293 228.885 142.015C228.292 141.377 227.563 141.035 226.697 140.989C225.9 142.015 224.726 144.065 223.177 147.142C221.627 150.218 220.534 152.519 219.896 154.046C219.85 154.365 219.827 154.673 219.827 154.969C219.827 156.108 219.998 157.646 220.34 159.583C220.682 161.497 221.103 163.286 221.604 164.949C221.194 165.724 220.351 166.373 219.075 166.897C217.799 167.422 216.227 167.684 214.358 167.684C212.672 167.684 211.316 167.547 210.291 167.273C209.288 167 208.582 166.715 208.172 166.419C207.762 166.1 207.557 165.906 207.557 165.838C207.534 165.633 207.477 165.097 207.386 164.231C207.295 163.343 207.203 162.112 207.112 160.54C207.021 158.945 206.976 157.133 206.976 155.105L206.941 144.783Z" fill="white"/>
<defs>
<linearGradient id="paint0_linear_0_40" x1="284" y1="284" x2="0" y2="0" gradientUnits="userSpaceOnUse">
<stop offset="0.311" stop-color="#808080"/>
<stop offset="1" stop-color="white"/>
</linearGradient>
</defs>
</svg>
