<svg width="284" height="284" viewBox="0 0 284 284" fill="none" xmlns="http://www.w3.org/2000/svg">
<rect width="284" height="284" rx="142" fill="url(#paint0_linear_0_8)"/>
<rect width="284" height="284" rx="142" stroke="black"/>
<path d="M53.5381 172.923C53.5381 171.276 53.7708 169.593 54.2363 167.874C54.7018 166.119 55.3285 164.669 56.1162 163.523L61.2725 164.49L67.0732 114.217L58.8018 113.035C58.1214 111.245 57.7812 109.419 57.7812 107.557C57.7812 105.659 58.1572 103.725 58.9092 101.756C60.807 100.861 64.0475 100.145 68.6309 99.6074C73.25 99.0345 77.3499 98.748 80.9307 98.748C84.2607 98.748 88.3607 98.8197 93.2305 98.9629L95.1104 99.8223C95.8981 102.042 96.9723 105.856 98.333 111.263C99.7295 116.634 102.093 126.123 105.423 139.729C105.96 141.842 106.551 144.241 107.195 146.927C108.914 140.696 111.027 131.888 113.533 120.501L114.876 114.646H115.145L106.229 113.143C105.369 111.137 104.939 108.989 104.939 106.697C104.939 105.193 105.136 103.564 105.53 101.81C109.004 100.7 112.62 99.9118 116.38 99.4463C120.175 98.9808 124.311 98.748 128.787 98.748H130.56C132.457 98.748 135.161 98.8197 138.67 98.9629L140.55 99.8223C142.841 108.13 145.026 118.209 147.103 130.062C149.215 141.878 150.809 152.728 151.883 162.61L152.044 163.953C152.08 164.204 152.169 165.063 152.312 166.531C152.456 167.964 152.527 169.342 152.527 170.667C152.527 172.278 152.366 173.872 152.044 175.447C151.507 177.811 150.54 179.762 149.144 181.302C147.747 181.875 146.279 182.304 144.739 182.591C143.235 182.913 141.481 183.074 139.476 183.074C137.506 183.074 135.537 182.841 133.567 182.376C131.634 181.946 130.345 181.302 129.7 180.442L131.634 168.143L128.411 134.358L128.68 116.365H127.015L124.383 134.788C120.874 147.786 117.669 157.848 114.769 164.974C115.771 166.943 116.631 169.127 117.347 171.526C118.099 173.925 118.564 176.271 118.743 178.562C117.239 179.995 115.18 181.105 112.566 181.893C109.988 182.68 107.249 183.074 104.349 183.074C101.377 183.074 98.6553 182.662 96.1846 181.839C93.7497 181.015 91.9772 179.869 90.8672 178.401C91.0462 174.785 91.9414 171.294 93.5527 167.928L83.9922 133.392L80.0176 117.117L78.1914 117.386L80.8232 135.594C80.68 141.932 80.4473 148.377 80.125 154.93C79.8027 161.482 79.4447 166.674 79.0508 170.506H79.1045C78.818 172.762 78.0482 174.767 76.7949 176.521C75.5775 178.24 74.0199 179.583 72.1221 180.55C70.2601 181.517 68.237 182 66.0527 182C60.3236 182 56.1878 179.529 53.6455 174.588C53.5739 173.872 53.5381 173.317 53.5381 172.923ZM159.241 164.759C161.425 165.475 163.413 166.048 165.203 166.478C168.676 152.513 172.633 136.023 177.073 117.01L164.129 115.613C163.305 113.357 162.894 110.797 162.894 107.933C162.894 105.748 163.144 103.618 163.646 101.541C168.838 100.538 174.817 99.8223 181.585 99.3926C188.388 98.9271 194.225 98.6943 199.095 98.6943C202.604 98.6943 205.236 98.7122 206.99 98.748L210.374 100.682C216.39 117.189 222.495 139.515 228.689 167.659C228.761 167.946 228.886 168.519 229.065 169.378C229.28 170.237 229.441 171.061 229.549 171.849C229.656 172.601 229.71 173.317 229.71 173.997C229.71 177.005 228.636 179.44 226.487 181.302C223.479 182.483 219.845 183.074 215.584 183.074C213.579 183.074 211.556 182.859 209.515 182.43C207.474 182 206.095 181.338 205.379 180.442L206.023 166.585L204.681 159.388C202.353 159.531 199.614 159.603 196.463 159.603C193.097 159.603 189.946 159.495 187.01 159.28L186.365 162.181C184.969 168.411 183.823 172.833 182.928 175.447C182.068 178.061 180.779 179.995 179.061 181.248C177.378 182.501 174.853 183.128 171.487 183.128C169.303 183.128 167.101 182.841 164.881 182.269C162.661 181.731 160.656 180.997 158.865 180.066C157.075 179.135 155.732 178.133 154.837 177.059C154.837 174.48 155.231 172.028 156.019 169.7C156.806 167.373 157.881 165.726 159.241 164.759ZM196.893 117.493H194.422L190.555 143.973H202.586L196.893 117.493Z" fill="white"/>
<defs>
<linearGradient id="paint0_linear_0_8" x1="284" y1="284" x2="0" y2="0" gradientUnits="userSpaceOnUse">
<stop offset="0.0806534" stop-color="#224815"/>
<stop offset="1" stop-color="#53C32B"/>
</linearGradient>
</defs>
</svg>
