<svg width="284" height="284" viewBox="0 0 284 284" fill="none" xmlns="http://www.w3.org/2000/svg">
<rect width="284" height="284" rx="142" fill="url(#paint0_linear_0_16)"/>
<rect width="284" height="284" rx="142" stroke="black"/>
<path d="M52.5713 172.923C52.5713 171.276 52.804 169.593 53.2695 167.874C53.735 166.119 54.3617 164.669 55.1494 163.523L60.3057 164.49L66.1064 114.217L57.835 113.035C57.1546 111.245 56.8145 109.419 56.8145 107.557C56.8145 105.659 57.1904 103.725 57.9424 101.756C59.8402 100.861 63.0807 100.145 67.6641 99.6074C72.2832 99.0345 76.3831 98.748 79.9639 98.748C83.2939 98.748 87.3939 98.8197 92.2637 98.9629L94.1436 99.8223C94.9313 102.042 96.0055 105.856 97.3662 111.263C98.7627 116.634 101.126 126.123 104.456 139.729C104.993 141.842 105.584 144.241 106.229 146.927C107.947 140.696 110.06 131.888 112.566 120.501L113.909 114.646H114.178L105.262 113.143C104.402 111.137 103.973 108.989 103.973 106.697C103.973 105.193 104.17 103.564 104.563 101.81C108.037 100.7 111.653 99.9118 115.413 99.4463C119.209 98.9808 123.344 98.748 127.82 98.748H129.593C131.491 98.748 134.194 98.8197 137.703 98.9629L139.583 99.8223C141.875 108.13 144.059 118.209 146.136 130.062C148.248 141.878 149.842 152.728 150.916 162.61L151.077 163.953C151.113 164.204 151.202 165.063 151.346 166.531C151.489 167.964 151.561 169.342 151.561 170.667C151.561 172.278 151.399 173.872 151.077 175.447C150.54 177.811 149.573 179.762 148.177 181.302C146.78 181.875 145.312 182.304 143.772 182.591C142.269 182.913 140.514 183.074 138.509 183.074C136.539 183.074 134.57 182.841 132.601 182.376C130.667 181.946 129.378 181.302 128.733 180.442L130.667 168.143L127.444 134.358L127.713 116.365H126.048L123.416 134.788C119.907 147.786 116.702 157.848 113.802 164.974C114.804 166.943 115.664 169.127 116.38 171.526C117.132 173.925 117.597 176.271 117.776 178.562C116.272 179.995 114.214 181.105 111.6 181.893C109.021 182.68 106.282 183.074 103.382 183.074C100.41 183.074 97.6885 182.662 95.2178 181.839C92.7829 181.015 91.0104 179.869 89.9004 178.401C90.0794 174.785 90.9746 171.294 92.5859 167.928L83.0254 133.392L79.0508 117.117L77.2246 117.386L79.8564 135.594C79.7132 141.932 79.4805 148.377 79.1582 154.93C78.8359 161.482 78.4779 166.674 78.084 170.506H78.1377C77.8512 172.762 77.0814 174.767 75.8281 176.521C74.6107 178.24 73.0531 179.583 71.1553 180.55C69.2933 181.517 67.2702 182 65.0859 182C59.3568 182 55.221 179.529 52.6787 174.588C52.6071 173.872 52.5713 173.317 52.5713 172.923ZM158.006 115.184C157.361 113.143 156.914 111.692 156.663 110.833C156.448 109.938 156.287 108.989 156.18 107.986C156.108 106.948 156.072 105.444 156.072 103.475C159.08 101.792 161.891 100.592 164.505 99.876C167.155 99.124 170.145 98.748 173.475 98.748C183.393 98.748 188.353 103.707 188.353 113.626C188.353 116.741 188.03 121.36 187.386 127.483C186.777 133.606 185.971 141.019 184.969 149.72C184.36 154.769 183.912 158.689 183.626 161.482C184.306 162.234 185.112 162.718 186.043 162.933C186.544 163.147 188.03 162.324 190.501 160.462C193.007 158.564 195.55 156.308 198.128 153.694C200.742 151.045 202.604 148.663 203.714 146.551C202.711 127.215 201.154 112.928 199.041 103.689C200.652 102.078 202.747 100.861 205.325 100.037C207.903 99.1777 210.41 98.748 212.845 98.748C214.922 98.748 216.909 98.9808 218.807 99.4463C220.74 99.876 222.405 100.61 223.802 101.648C224.912 104.083 225.467 108.076 225.467 113.626C225.467 116.705 225.162 121.754 224.554 128.772C223.981 135.755 223.247 142.684 222.352 149.559C221.492 156.398 220.651 161.375 219.827 164.49L226.434 161.59C227.544 162.736 228.528 164.186 229.388 165.94C230.247 167.659 230.802 169.629 231.053 171.849C230.48 172.994 229.298 174.463 227.508 176.253C225.717 178.043 223.515 179.637 220.901 181.033C218.323 182.394 215.602 183.074 212.737 183.074C209.55 183.074 207.098 182.125 205.379 180.228C203.696 178.33 202.854 175.895 202.854 172.923C202.854 172.207 202.998 170.649 203.284 168.25C203.606 165.851 203.893 164.365 204.144 163.792L202.532 163.255C200.599 167.086 198.576 170.434 196.463 173.299C194.386 176.163 191.915 178.509 189.051 180.335C186.186 182.161 182.928 183.074 179.275 183.074C173.582 183.074 169.59 181.051 167.298 177.005C165.006 172.923 163.86 167.82 163.86 161.697C163.86 154.285 163.95 145.817 164.129 136.292C164.308 126.767 164.594 120.018 164.988 116.043L158.006 115.184Z" fill="white"/>
<defs>
<linearGradient id="paint0_linear_0_16" x1="284" y1="284" x2="0" y2="0" gradientUnits="userSpaceOnUse">
<stop offset="0.13627" stop-color="#5A6709"/>
<stop offset="1" stop-color="#E3FF33"/>
</linearGradient>
</defs>
</svg>
