<svg width="284" height="284" viewBox="0 0 284 284" fill="none" xmlns="http://www.w3.org/2000/svg">
<rect width="284" height="284" rx="142" fill="url(#paint0_linear_0_32)"/>
<rect width="284" height="284" rx="142" stroke="black"/>
<path d="M70.5645 164.759C70.8867 164.866 71.5671 165.117 72.6055 165.511C73.6797 165.869 74.8613 166.173 76.1504 166.424V115.828L67.7178 112.981C66.8942 111.048 66.4824 108.828 66.4824 106.321C66.4824 104.28 66.8047 102.454 67.4492 100.843C70.0273 100.162 73.1247 99.6432 76.7412 99.2852C80.3936 98.8913 83.9206 98.6943 87.3223 98.6943C92.3711 98.6943 96.8291 99.0703 100.696 99.8223C102.487 103.296 105.136 109.83 108.646 119.427C112.19 129.023 116.451 141.609 121.429 157.186L122.342 157.078C121.303 148.234 120.265 137.868 119.227 125.979C118.224 114.056 117.723 105.892 117.723 101.487C119.585 100.628 121.661 99.9655 123.953 99.5C126.245 98.9987 128.357 98.748 130.291 98.748C133.442 98.748 136.468 99.3926 139.368 100.682L134.158 168.572C136.02 171.258 137.184 174.409 137.649 178.025C136.181 179.637 133.943 180.89 130.936 181.785C127.964 182.645 124.795 183.074 121.429 183.074C118.815 183.074 116.434 182.806 114.285 182.269C112.173 181.731 110.525 180.908 109.344 179.798C109.38 177.112 109.612 174.66 110.042 172.439C107.356 167.068 104.76 161.16 102.254 154.715C99.7832 148.234 96.6322 139.64 92.8008 128.934L90.4375 122.381L90.1152 122.435C90.8672 128.021 91.6729 136.256 92.5322 147.142C93.3916 157.991 93.8213 165.923 93.8213 170.936C93.8213 174.946 92.6217 177.972 90.2227 180.013C87.8594 182.054 84.1533 183.074 79.1045 183.074C77.529 183.074 75.846 182.77 74.0557 182.161C72.2653 181.552 70.6361 180.783 69.168 179.852C67.7357 178.885 66.7331 177.954 66.1602 177.059C66.1602 174.48 66.554 172.028 67.3418 169.7C68.1296 167.373 69.2038 165.726 70.5645 164.759ZM146.727 141.395C146.727 112.964 157.898 98.748 180.242 98.748C189.087 98.748 195.979 100.592 200.921 104.28C205.898 107.933 209.318 112.874 211.18 119.104C213.077 125.299 214.026 132.729 214.026 141.395C214.026 154.142 211.412 164.275 206.185 171.795C200.957 179.314 192.309 183.074 180.242 183.074C168.104 183.074 159.474 179.35 154.354 171.902C149.269 164.454 146.727 154.285 146.727 141.395ZM182.928 165.94C185.864 165.94 187.547 165.779 187.977 165.457C188.872 163.882 189.552 161.142 190.018 157.239C190.483 153.3 190.716 148.896 190.716 144.026C190.716 138.906 190.465 134.161 189.964 129.793C189.498 125.389 188.836 122.309 187.977 120.555C187.081 119.839 185.757 119.301 184.002 118.943C182.247 118.585 180.314 118.388 178.201 118.353C176.984 118.353 175.874 118.424 174.871 118.567C173.904 118.675 173.206 118.854 172.776 119.104C171.738 120.895 170.968 123.491 170.467 126.893C170.001 130.258 169.769 134.108 169.769 138.44C169.769 143.346 170.037 148.234 170.574 153.104C171.111 157.973 171.774 161.697 172.562 164.275C173.063 164.812 174.334 165.224 176.375 165.511C178.416 165.797 180.6 165.94 182.928 165.94Z" fill="white"/>
<defs>
<linearGradient id="paint0_linear_0_32" x1="284" y1="284" x2="0" y2="0" gradientUnits="userSpaceOnUse">
<stop offset="0.173657" stop-color="#4E7403"/>
<stop offset="1" stop-color="#A9FF00"/>
</linearGradient>
</defs>
</svg>
