<svg width="284" height="284" viewBox="0 0 284 284" fill="none" xmlns="http://www.w3.org/2000/svg">
<rect width="284" height="284" rx="142" fill="url(#paint0_linear_0_44)"/>
<rect width="284" height="284" rx="142" stroke="black"/>
<path d="M30.6426 140.738C30.6426 136.227 30.7207 132.223 30.877 128.727L26.9219 128.111C26.668 127.389 26.4727 126.588 26.3359 125.709C26.1992 124.83 26.1309 123.98 26.1309 123.16C26.1309 122.535 26.1797 121.852 26.2773 121.109C28.8359 120.211 32.2148 119.566 36.4141 119.176C40.6133 118.785 44.7148 118.59 48.7188 118.59C51.707 118.59 54.2754 118.824 56.4238 119.293C58.5723 119.762 60.3691 120.826 61.8145 122.486C63.2793 124.127 64.0117 126.588 64.0117 129.869C64.0117 131.217 63.7969 132.711 63.3672 134.352C62.9375 135.973 62.3418 137.594 61.5801 139.215C60.877 140.699 60.0762 142.115 59.1777 143.463C58.2988 144.791 57.3809 145.934 56.4238 146.891C56.9902 148.375 57.5762 149.732 58.1816 150.963C58.7871 152.174 59.7148 153.648 60.9648 155.387L65.0664 153.658C66.5898 154.967 67.4785 156.705 67.7324 158.873C67.7324 158.99 67.2637 159.547 66.3262 160.543C65.4082 161.539 64.207 162.467 62.7227 163.326C61.2383 164.166 59.5684 164.586 57.7129 164.586C56.2676 164.586 54.9688 164.332 53.8164 163.824C52.6836 163.316 51.7461 162.428 51.0039 161.158C50.2812 159.908 49.7051 158.424 49.2754 156.705C48.8457 154.986 48.543 153.287 48.3672 151.607L41.6875 151.314C41.8633 152.838 42.0879 154.41 42.3613 156.031C42.6348 157.633 42.8008 158.6 42.8594 158.932C43.1914 160.865 43.4062 162.184 43.5039 162.887C42.6055 163.434 41.5117 163.854 40.2227 164.146C38.9531 164.439 37.6543 164.586 36.3262 164.586C34.8027 164.586 33.3281 164.381 31.9023 163.971C31.4727 162.252 31.1504 159.244 30.9355 154.947C30.7402 150.631 30.6426 145.895 30.6426 140.738ZM48.8652 144.254C49.5488 142.301 50.0859 140.182 50.4766 137.896C50.8867 135.592 51.2578 132.848 51.5898 129.664C51.0234 129.449 50.2812 129.283 49.3633 129.166C48.4453 129.049 47.5566 128.99 46.6973 128.99C44.7441 128.99 43.2793 129.039 42.3027 129.137C42.0879 136.48 41.8535 141.686 41.5996 144.752L48.8652 144.254ZM70.3984 121.959C70.3984 120.24 70.9551 118.844 72.0684 117.77C73.2012 116.695 74.998 116.158 77.459 116.158C79.9199 116.158 81.707 116.695 82.8203 117.77C83.9531 118.844 84.5195 120.24 84.5195 121.959C84.5195 122.936 84.1777 123.834 83.4941 124.654C82.8301 125.475 81.9512 126.129 80.8574 126.617C79.7637 127.086 78.6309 127.32 77.459 127.32C76.1895 127.32 75.0078 127.047 73.9141 126.5C72.8398 125.934 71.9805 125.23 71.3359 124.391C70.7109 123.551 70.3984 122.74 70.3984 121.959ZM68.9629 138.717C68.709 137.76 68.5332 136.891 68.4355 136.109C68.3379 135.309 68.2891 134.479 68.2891 133.619L68.3184 132.799C68.7285 132.271 69.3633 131.744 70.2227 131.217C71.1016 130.67 72.1172 130.211 73.2695 129.84C74.4414 129.469 75.6523 129.283 76.9023 129.283C79.6367 129.283 81.5801 129.898 82.7324 131.129C83.8848 132.359 84.4609 134.273 84.4609 136.871C84.4609 138.434 84.2363 140.475 83.7871 142.994C83.3574 145.514 82.8301 147.965 82.2051 150.348C81.5996 152.711 81.0723 154.4 80.623 155.416L80.6816 155.475L85.0176 153.893C85.7988 154.557 86.3848 155.289 86.7754 156.09C87.1855 156.891 87.4492 157.818 87.5664 158.873C87.5664 159.01 87.1367 159.576 86.2773 160.572C85.418 161.549 84.2754 162.467 82.8496 163.326C81.4434 164.166 79.8125 164.586 77.957 164.586C76.082 164.586 74.5586 164.078 73.3867 163.062C72.2344 162.047 71.6582 160.309 71.6582 157.848C71.6582 154.977 71.7363 151.93 71.8926 148.707C72.0488 145.484 72.293 142.359 72.625 139.332L68.9629 138.717ZM90.1738 147.096C90.1738 144.127 90.584 141.285 91.4043 138.57C92.2441 135.855 93.5527 133.629 95.3301 131.891C97.127 130.152 99.3828 129.283 102.098 129.283C105.145 129.283 108.055 130.25 110.828 132.184L111.297 131.891C111.238 129.605 110.955 127.535 110.447 125.68L104.5 125.299C104.227 124.947 104.012 124.43 103.855 123.746C103.699 123.043 103.621 122.32 103.621 121.578C103.621 120.582 103.738 119.723 103.973 119C105.145 118.16 106.648 117.525 108.484 117.096C110.32 116.666 112.156 116.451 113.992 116.451C116.023 116.451 117.557 116.881 118.592 117.74C119.627 118.58 120.32 119.859 120.672 121.578C121.043 123.277 121.229 125.641 121.229 128.668C121.229 132.652 121.062 137.174 120.73 142.232C120.398 147.291 119.969 151.422 119.441 154.625L119.324 155.123L122.723 153.658C123.289 154.264 123.787 155.006 124.217 155.885C124.666 156.744 124.949 157.74 125.066 158.873C124.793 159.459 124.197 160.211 123.279 161.129C122.361 162.027 121.238 162.828 119.91 163.531C118.582 164.234 117.195 164.586 115.75 164.586C114.129 164.586 112.879 164.107 112 163.15C111.141 162.174 110.711 160.934 110.711 159.43C110.711 159.039 110.809 158.238 111.004 157.027C111.219 155.816 111.395 154.977 111.531 154.508L110.652 154.244C109.656 157.74 108.338 160.338 106.697 162.037C105.057 163.736 103.025 164.586 100.604 164.586C98.0059 164.586 95.9258 163.727 94.3633 162.008C92.8203 160.27 91.7363 158.092 91.1113 155.475C90.4863 152.857 90.1738 150.064 90.1738 147.096ZM110.271 146.568C110.389 145.865 110.447 145.045 110.447 144.107C110.447 143.502 110.418 142.926 110.359 142.379C110.32 141.832 110.271 141.441 110.213 141.207C109.432 140.641 108.543 140.24 107.547 140.006C106.57 139.771 105.672 139.654 104.852 139.654C104.344 139.654 103.797 139.703 103.211 139.801C102.82 140.191 102.508 141.041 102.273 142.35C102.039 143.639 101.922 145.094 101.922 146.715C101.922 148.453 102.039 150.143 102.273 151.783C102.527 153.404 102.879 154.674 103.328 155.592C103.641 155.592 104.246 155.113 105.145 154.156C106.062 153.18 107.01 151.988 107.986 150.582C108.963 149.156 109.725 147.818 110.271 146.568ZM129.871 153.805C129.871 150.621 129.91 148.219 129.988 146.598C130.066 144.957 130.271 142.555 130.604 139.391L127.205 138.951C126.795 137.682 126.521 136.549 126.385 135.553C126.268 134.557 126.209 133.268 126.209 131.686C126.521 131.412 127.039 131.09 127.762 130.719C128.504 130.328 129.383 129.996 130.398 129.723C131.414 129.43 132.439 129.283 133.475 129.283C135.838 129.283 137.508 129.791 138.484 130.807C139.48 131.822 139.979 133.346 139.979 135.377C139.979 136.51 139.812 138.043 139.48 139.977C138.934 143.082 138.66 144.713 138.66 144.869C138.66 144.967 138.729 145.064 138.865 145.162C139.002 145.24 139.148 145.279 139.305 145.279C139.48 145.279 139.598 145.211 139.656 145.074C140.438 141.969 141.219 139.371 142 137.281C142.781 135.191 143.963 133.336 145.545 131.715C147.127 130.094 149.178 129.283 151.697 129.283C154.822 129.283 157.068 130.24 158.436 132.154C159.803 134.049 160.486 136.441 160.486 139.332C160.486 141.91 160.184 144.4 159.578 146.803C158.973 149.186 158.221 151.676 157.322 154.273C157.361 154.176 157.225 154.557 156.912 155.416L156.971 155.475L161.248 153.717C162.771 155.025 163.66 156.764 163.914 158.932C163.914 159.068 163.475 159.625 162.596 160.602C161.736 161.578 160.594 162.486 159.168 163.326C157.742 164.166 156.102 164.586 154.246 164.586C152.391 164.586 150.877 164.088 149.705 163.092C148.533 162.096 147.947 160.396 147.947 157.994C147.947 156.08 148.025 153.521 148.182 150.318C148.338 147.115 148.494 144.537 148.65 142.584C148.143 142.037 147.518 141.744 146.775 141.705C146.092 142.584 145.086 144.342 143.758 146.979C142.43 149.615 141.492 151.588 140.945 152.896C140.906 153.17 140.887 153.434 140.887 153.688C140.887 154.664 141.033 155.982 141.326 157.643C141.619 159.283 141.98 160.816 142.41 162.242C142.059 162.906 141.336 163.463 140.242 163.912C139.148 164.361 137.801 164.586 136.199 164.586C134.754 164.586 133.592 164.469 132.713 164.234C131.854 164 131.248 163.756 130.896 163.502C130.545 163.229 130.369 163.062 130.369 163.004C130.35 162.828 130.301 162.369 130.223 161.627C130.145 160.865 130.066 159.811 129.988 158.463C129.91 157.096 129.871 155.543 129.871 153.805ZM167.488 121.959C167.488 120.24 168.045 118.844 169.158 117.77C170.291 116.695 172.088 116.158 174.549 116.158C177.01 116.158 178.797 116.695 179.91 117.77C181.043 118.844 181.609 120.24 181.609 121.959C181.609 122.936 181.268 123.834 180.584 124.654C179.92 125.475 179.041 126.129 177.947 126.617C176.854 127.086 175.721 127.32 174.549 127.32C173.279 127.32 172.098 127.047 171.004 126.5C169.93 125.934 169.07 125.23 168.426 124.391C167.801 123.551 167.488 122.74 167.488 121.959ZM166.053 138.717C165.799 137.76 165.623 136.891 165.525 136.109C165.428 135.309 165.379 134.479 165.379 133.619L165.408 132.799C165.818 132.271 166.453 131.744 167.312 131.217C168.191 130.67 169.207 130.211 170.359 129.84C171.531 129.469 172.742 129.283 173.992 129.283C176.727 129.283 178.67 129.898 179.822 131.129C180.975 132.359 181.551 134.273 181.551 136.871C181.551 138.434 181.326 140.475 180.877 142.994C180.447 145.514 179.92 147.965 179.295 150.348C178.689 152.711 178.162 154.4 177.713 155.416L177.771 155.475L182.107 153.893C182.889 154.557 183.475 155.289 183.865 156.09C184.275 156.891 184.539 157.818 184.656 158.873C184.656 159.01 184.227 159.576 183.367 160.572C182.508 161.549 181.365 162.467 179.939 163.326C178.533 164.166 176.902 164.586 175.047 164.586C173.172 164.586 171.648 164.078 170.477 163.062C169.324 162.047 168.748 160.309 168.748 157.848C168.748 154.977 168.826 151.93 168.982 148.707C169.139 145.484 169.383 142.359 169.715 139.332L166.053 138.717ZM189.93 153.805C189.93 150.621 189.969 148.219 190.047 146.598C190.125 144.957 190.33 142.555 190.662 139.391L187.264 138.951C186.854 137.682 186.58 136.549 186.443 135.553C186.326 134.557 186.268 133.268 186.268 131.686C186.58 131.412 187.098 131.09 187.82 130.719C188.562 130.328 189.441 129.996 190.457 129.723C191.473 129.43 192.498 129.283 193.533 129.283C195.896 129.283 197.566 129.791 198.543 130.807C199.539 131.822 200.037 133.346 200.037 135.377C200.037 136.51 199.871 138.043 199.539 139.977C198.992 143.082 198.719 144.713 198.719 144.869C198.719 144.967 198.787 145.064 198.924 145.162C199.061 145.24 199.207 145.279 199.363 145.279C199.539 145.279 199.656 145.211 199.715 145.074C200.496 141.969 201.277 139.371 202.059 137.281C202.84 135.191 204.021 133.336 205.604 131.715C207.186 130.094 209.236 129.283 211.756 129.283C214.881 129.283 217.127 130.24 218.494 132.154C219.861 134.049 220.545 136.441 220.545 139.332C220.545 141.91 220.242 144.4 219.637 146.803C219.031 149.186 218.279 151.676 217.381 154.273C217.42 154.176 217.283 154.557 216.971 155.416L217.029 155.475L221.307 153.717C222.83 155.025 223.719 156.764 223.973 158.932C223.973 159.068 223.533 159.625 222.654 160.602C221.795 161.578 220.652 162.486 219.227 163.326C217.801 164.166 216.16 164.586 214.305 164.586C212.449 164.586 210.936 164.088 209.764 163.092C208.592 162.096 208.006 160.396 208.006 157.994C208.006 156.08 208.084 153.521 208.24 150.318C208.396 147.115 208.553 144.537 208.709 142.584C208.201 142.037 207.576 141.744 206.834 141.705C206.15 142.584 205.145 144.342 203.816 146.979C202.488 149.615 201.551 151.588 201.004 152.896C200.965 153.17 200.945 153.434 200.945 153.688C200.945 154.664 201.092 155.982 201.385 157.643C201.678 159.283 202.039 160.816 202.469 162.242C202.117 162.906 201.395 163.463 200.301 163.912C199.207 164.361 197.859 164.586 196.258 164.586C194.812 164.586 193.65 164.469 192.771 164.234C191.912 164 191.307 163.756 190.955 163.502C190.604 163.229 190.428 163.062 190.428 163.004C190.408 162.828 190.359 162.369 190.281 161.627C190.203 160.865 190.125 159.811 190.047 158.463C189.969 157.096 189.93 155.543 189.93 153.805ZM243.367 168.658C244.676 168.658 245.809 168.512 246.766 168.219C247.059 167.926 247.264 167.584 247.381 167.193C247.498 166.822 247.557 166.471 247.557 166.139C247.557 165.787 247.527 165.523 247.469 165.348C247.41 165.191 247.312 165.045 247.176 164.908C246.355 164.771 245.389 164.674 244.275 164.615C243.182 164.576 242.527 164.547 242.312 164.527C239.598 164.41 237.391 164.215 235.691 163.941C233.992 163.648 232.537 163.023 231.326 162.066C230.115 161.09 229.51 159.625 229.51 157.672C229.51 156.617 229.852 155.631 230.535 154.713C231.219 153.775 232.107 152.955 233.201 152.252C230.975 151.334 229.188 149.957 227.84 148.121C226.512 146.266 225.848 143.873 225.848 140.943C225.848 138.033 226.59 135.699 228.074 133.941C229.578 132.164 231.424 130.914 233.611 130.191C235.799 129.469 238.025 129.107 240.291 129.107C241.717 129.107 243.113 129.244 244.48 129.518C245.848 129.791 247.117 130.182 248.289 130.689L247.029 123.248C248.221 122.525 249.705 122.164 251.482 122.164C252.771 122.164 253.973 122.379 255.086 122.809C256.199 123.238 257.049 123.854 257.635 124.654C257.674 124.85 257.693 125.162 257.693 125.592C257.693 127.193 257.4 128.98 256.814 130.953C256.248 132.906 255.262 134.479 253.855 135.67C254.559 137.076 254.91 138.59 254.91 140.211C254.91 142.594 254.451 144.791 253.533 146.803C252.635 148.814 251.131 150.455 249.021 151.725C246.912 152.975 244.168 153.6 240.789 153.6C239.812 153.6 238.797 153.541 237.742 153.424C237.684 154.4 237.918 155.377 238.445 156.354C241.082 155.846 243.211 155.582 244.832 155.562L246.824 155.533C249.52 155.533 251.561 155.699 252.947 156.031C254.471 156.402 255.604 157.242 256.346 158.551C257.107 159.859 257.488 161.451 257.488 163.326C257.488 166.256 256.59 168.717 254.793 170.709C253.016 172.721 250.701 174.215 247.85 175.191C245.018 176.168 242.01 176.656 238.826 176.656C235.877 176.656 233.25 176.158 230.945 175.162C228.641 174.166 227.186 172.34 226.58 169.684C227.225 167.438 228.455 165.738 230.271 164.586C232.713 166.051 235.047 167.096 237.273 167.721C239.52 168.346 241.551 168.658 243.367 168.658ZM241.58 146.363C242.986 146.363 243.807 146.275 244.041 146.1C244.568 145.045 244.832 143.961 244.832 142.848C244.832 141.695 244.568 140.611 244.041 139.596C243.787 139.381 243.221 139.215 242.342 139.098C241.482 138.98 240.545 138.922 239.529 138.922C238.26 138.922 237.41 139 236.98 139.156C236.375 140.23 236.072 141.314 236.072 142.408C236.072 143.521 236.355 144.576 236.922 145.572C237.352 145.846 237.996 146.051 238.855 146.188C239.734 146.305 240.643 146.363 241.58 146.363Z" fill="white"/>
<defs>
<linearGradient id="paint0_linear_0_44" x1="284" y1="284" x2="0" y2="0" gradientUnits="userSpaceOnUse">
<stop offset="0.230374" stop-color="#736500"/>
<stop offset="1" stop-color="#FFE000"/>
</linearGradient>
</defs>
</svg>
