<svg width="284" height="284" viewBox="0 0 284 284" fill="none" xmlns="http://www.w3.org/2000/svg">
<rect width="284" height="284" rx="142" fill="url(#paint0_linear_0_36)"/>
<rect width="284" height="284" rx="142" stroke="black"/>
<path d="M84.4219 170.237C84.4219 168.411 84.762 166.567 85.4424 164.705C86.1227 162.843 87.179 161.089 88.6113 159.441C93.8392 161.733 98.3867 163.488 102.254 164.705C106.157 165.923 110.167 166.531 114.285 166.531C115.037 166.531 115.807 166.46 116.595 166.316C117.418 166.173 118.063 165.976 118.528 165.726C118.707 165.332 118.851 164.83 118.958 164.222C119.065 163.577 119.119 163.058 119.119 162.664C119.119 160.91 118.278 159.406 116.595 158.152C114.912 156.899 112.692 155.646 109.935 154.393L108.055 153.479C102.684 150.722 98.3688 148.252 95.1104 146.067C91.8877 143.847 89.1484 140.947 86.8926 137.366C84.6725 133.75 83.5625 129.327 83.5625 124.1C83.5625 116.437 85.693 110.296 89.9541 105.677C94.251 101.058 101.072 98.748 110.418 98.748C118.403 98.748 124.723 99.2314 129.378 100.198C131.312 101.344 132.994 102.544 134.427 103.797C135.895 105.014 137.291 106.5 138.616 108.255C138.616 110.761 138.366 113.483 137.864 116.419C137.399 119.319 136.736 121.987 135.877 124.422C135.053 126.857 134.158 128.611 133.191 129.686C132.368 130.079 131.455 130.384 130.452 130.599C129.45 130.778 128.214 130.867 126.746 130.867C125.206 130.867 123.953 130.76 122.986 130.545C122.02 130.33 121.124 129.972 120.301 129.471L118.636 118.299C116.559 117.726 114.357 117.314 112.029 117.063C109.702 116.777 108.126 116.652 107.303 116.688C105.978 117.296 105.065 118.156 104.563 119.266C104.098 120.34 103.865 121.629 103.865 123.133C103.865 124.744 104.295 126.141 105.154 127.322C106.049 128.468 107.124 129.417 108.377 130.169C109.63 130.921 111.242 131.762 113.211 132.693L115.574 133.875C120.695 136.561 124.723 138.906 127.659 140.911C130.595 142.916 133.048 145.459 135.018 148.538C137.023 151.582 138.025 155.27 138.025 159.603C138.025 164.651 136.701 169.002 134.051 172.654C131.401 176.271 127.999 178.885 123.846 180.496C121.59 181.391 119.101 182.036 116.38 182.43C113.659 182.824 110.507 183.021 106.927 183.021C104.492 183.021 101.878 182.716 99.085 182.107C96.292 181.499 93.5706 180.424 90.9209 178.885C88.307 177.345 86.2122 175.286 84.6367 172.708C84.4935 172.028 84.4219 171.204 84.4219 170.237ZM143.182 168.411C143.182 165.153 143.844 162.02 145.169 159.012C145.778 159.012 146.727 159.137 148.016 159.388C149.305 159.603 150.665 159.889 152.098 160.247C151.919 152.549 151.829 145.029 151.829 137.688C151.829 129.775 151.972 123.025 152.259 117.439H152.205L152.259 116.795L143.504 115.667C142.967 113.483 142.609 111.674 142.43 110.242C142.251 108.774 142.179 107.091 142.215 105.193C143.361 103.904 145.044 102.776 147.264 101.81C149.52 100.807 151.937 100.055 154.515 99.5537C157.129 99.0166 159.51 98.748 161.658 98.748C165.776 98.748 168.981 99.5716 171.272 101.219C173.6 102.83 174.925 105.408 175.247 108.953C175.354 110.35 175.408 111.871 175.408 113.519C175.408 118.961 174.925 125.407 173.958 132.854C172.991 140.302 171.702 149.004 170.091 158.958L169.661 161.751L183.357 162.503L188.943 144.671C190.626 144.599 192.542 144.725 194.69 145.047C196.875 145.369 198.755 145.817 200.33 146.39C200.975 148.073 201.565 150.758 202.103 154.446C202.675 158.099 202.962 161.679 202.962 165.188C202.962 171.025 202.103 175.125 200.384 177.488C199.524 178.634 198.325 179.637 196.785 180.496C195.281 181.32 193.688 181.946 192.005 182.376C190.358 182.841 188.872 183.074 187.547 183.074C185.434 183.074 182.964 182.627 180.135 181.731C177.306 180.8 174.531 179.637 171.81 178.24C169.088 176.808 166.85 175.376 165.096 173.943C163.484 176.736 161.622 178.903 159.51 180.442C157.397 181.982 154.765 182.859 151.614 183.074C150.075 182.824 148.66 182.018 147.371 180.657C146.082 179.297 145.062 177.542 144.31 175.394C143.558 173.245 143.182 170.918 143.182 168.411Z" fill="white"/>
<defs>
<linearGradient id="paint0_linear_0_36" x1="284" y1="284" x2="0" y2="0" gradientUnits="userSpaceOnUse">
<stop offset="0.126535" stop-color="#02104A"/>
<stop offset="1" stop-color="#0030F0"/>
</linearGradient>
</defs>
</svg>
