<svg width="284" height="284" viewBox="0 0 284 284" fill="none" xmlns="http://www.w3.org/2000/svg">
<rect width="284" height="284" rx="142" fill="url(#paint0_linear_0_24)"/>
<rect width="284" height="284" rx="142" stroke="black"/>
<path d="M77.9229 170.237C77.9229 168.411 78.263 166.567 78.9434 164.705C79.6237 162.843 80.68 161.089 82.1123 159.441C87.3402 161.733 91.8877 163.488 95.7549 164.705C99.6579 165.923 103.668 166.531 107.786 166.531C108.538 166.531 109.308 166.46 110.096 166.316C110.919 166.173 111.564 165.976 112.029 165.726C112.208 165.332 112.352 164.83 112.459 164.222C112.566 163.577 112.62 163.058 112.62 162.664C112.62 160.91 111.779 159.406 110.096 158.152C108.413 156.899 106.193 155.646 103.436 154.393L101.556 153.479C96.1846 150.722 91.8698 148.252 88.6113 146.067C85.3887 143.847 82.6494 140.947 80.3936 137.366C78.1735 133.75 77.0635 129.327 77.0635 124.1C77.0635 116.437 79.194 110.296 83.4551 105.677C87.752 101.058 94.5732 98.748 103.919 98.748C111.904 98.748 118.224 99.2314 122.879 100.198C124.812 101.344 126.495 102.544 127.928 103.797C129.396 105.014 130.792 106.5 132.117 108.255C132.117 110.761 131.867 113.483 131.365 116.419C130.9 119.319 130.237 121.987 129.378 124.422C128.554 126.857 127.659 128.611 126.692 129.686C125.869 130.079 124.956 130.384 123.953 130.599C122.951 130.778 121.715 130.867 120.247 130.867C118.707 130.867 117.454 130.76 116.487 130.545C115.521 130.33 114.625 129.972 113.802 129.471L112.137 118.299C110.06 117.726 107.858 117.314 105.53 117.063C103.203 116.777 101.627 116.652 100.804 116.688C99.4788 117.296 98.5658 118.156 98.0645 119.266C97.599 120.34 97.3662 121.629 97.3662 123.133C97.3662 124.744 97.7959 126.141 98.6553 127.322C99.5505 128.468 100.625 129.417 101.878 130.169C103.131 130.921 104.743 131.762 106.712 132.693L109.075 133.875C114.196 136.561 118.224 138.906 121.16 140.911C124.096 142.916 126.549 145.459 128.519 148.538C130.524 151.582 131.526 155.27 131.526 159.603C131.526 164.651 130.201 169.002 127.552 172.654C124.902 176.271 121.5 178.885 117.347 180.496C115.091 181.391 112.602 182.036 109.881 182.43C107.16 182.824 104.008 183.021 100.428 183.021C97.9928 183.021 95.3789 182.716 92.5859 182.107C89.793 181.499 87.0716 180.424 84.4219 178.885C81.8079 177.345 79.7132 175.286 78.1377 172.708C77.9945 172.028 77.9229 171.204 77.9229 170.237ZM138.133 141.395C138.133 112.964 149.305 98.748 171.648 98.748C180.493 98.748 187.386 100.592 192.327 104.28C197.304 107.933 200.724 112.874 202.586 119.104C204.484 125.299 205.433 132.729 205.433 141.395C205.433 154.142 202.819 164.275 197.591 171.795C192.363 179.314 183.715 183.074 171.648 183.074C159.51 183.074 150.88 179.35 145.76 171.902C140.675 164.454 138.133 154.285 138.133 141.395ZM174.334 165.94C177.27 165.94 178.953 165.779 179.383 165.457C180.278 163.882 180.958 161.142 181.424 157.239C181.889 153.3 182.122 148.896 182.122 144.026C182.122 138.906 181.871 134.161 181.37 129.793C180.905 125.389 180.242 122.309 179.383 120.555C178.488 119.839 177.163 119.301 175.408 118.943C173.654 118.585 171.72 118.388 169.607 118.353C168.39 118.353 167.28 118.424 166.277 118.567C165.311 118.675 164.612 118.854 164.183 119.104C163.144 120.895 162.374 123.491 161.873 126.893C161.408 130.258 161.175 134.108 161.175 138.44C161.175 143.346 161.443 148.234 161.98 153.104C162.518 157.973 163.18 161.697 163.968 164.275C164.469 164.812 165.74 165.224 167.781 165.511C169.822 165.797 172.007 165.94 174.334 165.94Z" fill="white"/>
<defs>
<linearGradient id="paint0_linear_0_24" x1="284" y1="284" x2="0" y2="0" gradientUnits="userSpaceOnUse">
<stop offset="0.13627" stop-color="#5D162D"/>
<stop offset="1" stop-color="#FF2067"/>
</linearGradient>
</defs>
</svg>
