<svg width="284" height="284" viewBox="0 0 284 284" fill="none" xmlns="http://www.w3.org/2000/svg">
<rect width="284" height="284" rx="142" fill="url(#paint0_linear_0_4)"/>
<rect width="284" height="284" rx="142" stroke="black"/>
<path d="M75.2031 172.168C75.2031 170.176 75.5742 168.164 76.3164 166.133C77.0586 164.102 78.2109 162.188 79.7734 160.391C85.4766 162.891 90.4375 164.805 94.6562 166.133C98.9141 167.461 103.289 168.125 107.781 168.125C108.602 168.125 109.441 168.047 110.301 167.891C111.199 167.734 111.902 167.52 112.41 167.246C112.605 166.816 112.762 166.27 112.879 165.605C112.996 164.902 113.055 164.336 113.055 163.906C113.055 161.992 112.137 160.352 110.301 158.984C108.465 157.617 106.043 156.25 103.035 154.883L100.984 153.887C95.125 150.879 90.418 148.184 86.8633 145.801C83.3477 143.379 80.3594 140.215 77.8984 136.309C75.4766 132.363 74.2656 127.539 74.2656 121.836C74.2656 113.477 76.5898 106.777 81.2383 101.738C85.9258 96.6992 93.3672 94.1797 103.562 94.1797C112.273 94.1797 119.168 94.707 124.246 95.7617C126.355 97.0117 128.191 98.3203 129.754 99.6875C131.355 101.016 132.879 102.637 134.324 104.551C134.324 107.285 134.051 110.254 133.504 113.457C132.996 116.621 132.273 119.531 131.336 122.188C130.438 124.844 129.461 126.758 128.406 127.93C127.508 128.359 126.512 128.691 125.418 128.926C124.324 129.121 122.977 129.219 121.375 129.219C119.695 129.219 118.328 129.102 117.273 128.867C116.219 128.633 115.242 128.242 114.344 127.695L112.527 115.508C110.262 114.883 107.859 114.434 105.32 114.16C102.781 113.848 101.062 113.711 100.164 113.75C98.7188 114.414 97.7227 115.352 97.1758 116.562C96.668 117.734 96.4141 119.141 96.4141 120.781C96.4141 122.539 96.8828 124.062 97.8203 125.352C98.7969 126.602 99.9688 127.637 101.336 128.457C102.703 129.277 104.461 130.195 106.609 131.211L109.188 132.5C114.773 135.43 119.168 137.988 122.371 140.176C125.574 142.363 128.25 145.137 130.398 148.496C132.586 151.816 133.68 155.84 133.68 160.566C133.68 166.074 132.234 170.82 129.344 174.805C126.453 178.75 122.742 181.602 118.211 183.359C115.75 184.336 113.035 185.039 110.066 185.469C107.098 185.898 103.66 186.113 99.7539 186.113C97.0977 186.113 94.2461 185.781 91.1992 185.117C88.1523 184.453 85.1836 183.281 82.293 181.602C79.4414 179.922 77.1562 177.676 75.4375 174.863C75.2812 174.121 75.2031 173.223 75.2031 172.168ZM158.934 171.758C157.488 166.953 155.379 160.43 152.605 152.188C149.832 143.945 147.098 136.289 144.402 129.219C141.746 122.148 139.793 117.754 138.543 116.035L133.445 115.625C132 111.289 131.277 107.637 131.277 104.668C132.645 101.27 134.695 98.6914 137.43 96.9336C140.164 95.1367 143.484 94.2383 147.391 94.2383C153.406 94.2383 157.938 96.8555 160.984 102.09C162.898 105.371 164.52 109.492 165.848 114.453C167.215 119.375 168.543 125.312 169.832 132.266C172.371 145.508 173.934 156.504 174.52 165.254L175.867 165.02C176.883 162.793 178.172 158.262 179.734 151.426C181.297 144.59 182.645 137.539 183.777 130.273C184.91 122.969 185.477 117.48 185.477 113.809L177.742 112.695C177.195 110.742 176.805 109.043 176.57 107.598C176.336 106.113 176.199 104.512 176.16 102.793C176.16 102.637 176.16 102.422 176.16 102.148C176.199 101.875 176.199 101.543 176.16 101.152C177.02 100.137 178.445 99.082 180.438 97.9883C182.43 96.8945 184.734 95.9766 187.352 95.2344C190.008 94.4922 192.664 94.1211 195.32 94.1211C200.672 94.1211 204.598 95.4492 207.098 98.1055C209.598 100.723 210.848 104.746 210.848 110.176C210.848 113.926 210.34 118.379 209.324 123.535C208.309 128.691 206.883 134.023 205.047 139.531C203.719 143.516 201.727 148.496 199.07 154.473C196.414 160.41 193.562 166.113 190.516 171.582C187.508 177.051 184.793 181.172 182.371 183.945C181.238 184.688 179.871 185.234 178.27 185.586C176.668 185.977 175.066 186.172 173.465 186.172C171.238 186.172 168.953 185.859 166.609 185.234C164.305 184.648 162.254 183.809 160.457 182.715C158.699 181.621 157.469 180.371 156.766 178.965L158.934 171.758Z" fill="white"/>
<defs>
<linearGradient id="paint0_linear_0_4" x1="284" y1="284" x2="0" y2="0" gradientUnits="userSpaceOnUse">
<stop stop-color="#7B2820"/>
<stop offset="1" stop-color="#E23525"/>
</linearGradient>
</defs>
</svg>
