<svg width="284" height="284" viewBox="0 0 284 284" fill="none" xmlns="http://www.w3.org/2000/svg">
<rect width="284" height="284" rx="142" fill="url(#paint0_linear_0_20)"/>
<rect width="284" height="284" rx="142" stroke="black"/>
<path d="M92.5322 163.738C95.1462 164.777 97.2051 165.582 98.709 166.155C100.213 166.728 101.788 167.229 103.436 167.659C103.901 166.478 104.134 164.866 104.134 162.825C104.134 160.068 103.937 155.019 103.543 147.679C102.97 137.868 102.684 130.348 102.684 125.12C102.684 121.504 102.791 118.388 103.006 115.774L94.1436 115.237L93.9824 132.156C91.2969 133.051 88.2712 133.499 84.9053 133.499C84.0459 133.499 83.4014 133.481 82.9717 133.445C81.79 132.514 80.5547 131.046 79.2656 129.041C78.0124 127.036 76.974 124.78 76.1504 122.273C75.3268 119.767 74.915 117.35 74.915 115.022C74.915 111.012 75.5775 107.951 76.9023 105.838C78.2272 103.725 80.0892 102.275 82.4883 101.487C84.8874 100.664 88.0921 100.127 92.1025 99.876C98.333 99.5179 105.656 99.2493 114.07 99.0703C122.521 98.8555 130.595 98.748 138.294 98.748C139.332 100.073 140.102 101.559 140.604 103.206C141.141 104.853 141.409 106.5 141.409 108.147C141.409 111.227 140.621 113.805 139.046 115.882C137.47 117.959 135.143 118.997 132.063 118.997C130.058 118.997 127.641 118.639 124.812 117.923C124.168 134.752 123.237 150.293 122.02 164.544C121.769 167.301 121.357 169.736 120.784 171.849C120.211 173.961 119.334 175.805 118.152 177.381C116.684 179.314 114.661 180.747 112.083 181.678C109.505 182.609 106.658 183.074 103.543 183.074C100.607 183.074 97.7064 182.555 94.8418 181.517C92.013 180.478 89.8825 178.562 88.4502 175.77C88.486 173.442 88.7725 171.383 89.3096 169.593C89.8467 167.767 90.9209 165.815 92.5322 163.738ZM144.363 176.468C144.363 172.744 144.31 168.68 144.202 164.275C144.095 159.835 144.023 156.917 143.987 155.521C143.701 146.211 143.558 139.21 143.558 134.52C143.558 127.609 143.737 121.701 144.095 116.795L136.951 115.667C136.486 113.733 136.163 112.104 135.984 110.779C135.77 109.454 135.662 108.004 135.662 106.429V105.193C136.414 104.262 137.614 103.296 139.261 102.293C140.944 101.29 142.895 100.449 145.115 99.7686C147.371 99.0882 149.645 98.748 151.937 98.748C156.162 98.748 159.528 99.6253 162.034 101.38C164.541 103.134 165.794 105.874 165.794 109.598C165.794 117.404 165.364 130.438 164.505 148.699L167.835 147.947C170.091 143.901 172.597 138.584 175.354 131.995C178.147 125.407 179.974 120.304 180.833 116.688L174.173 115.56C173.707 113.626 173.367 111.997 173.152 110.672C172.973 109.347 172.884 107.897 172.884 106.321V105.086C173.6 104.191 174.871 103.242 176.697 102.239C178.559 101.201 180.69 100.341 183.089 99.6611C185.488 98.9808 187.851 98.6406 190.179 98.6406C192.721 98.6406 195.031 99.0703 197.107 99.9297C199.184 100.789 200.831 102.114 202.049 103.904C203.302 105.695 203.929 107.897 203.929 110.511C203.929 115.022 202.013 120.447 198.182 126.785C194.386 133.123 189.821 139.479 184.485 145.853C186.24 149.505 188.12 152.942 190.125 156.165C192.13 159.388 193.903 161.823 195.442 163.47C196.23 163.076 196.964 162.557 197.645 161.912C198.361 161.268 199.274 160.337 200.384 159.119L201.565 157.884L208.172 162.879V164.061C208.172 169.754 206.74 174.337 203.875 177.811C201.046 181.284 196.749 183.021 190.984 183.021C188.836 183.021 186.795 182.716 184.861 182.107C182.176 181.284 179.848 179.655 177.879 177.22C175.945 174.785 174.406 171.974 173.26 168.787C172.15 165.564 171.38 162.252 170.95 158.851C169.16 159.28 166.814 159.585 163.914 159.764C163.592 165.887 163.18 172.887 162.679 180.765C159.778 182.34 156.556 183.128 153.011 183.128C149.931 183.128 147.031 182.573 144.31 181.463L144.363 176.468Z" fill="white"/>
<defs>
<linearGradient id="paint0_linear_0_20" x1="284" y1="284" x2="0" y2="0" gradientUnits="userSpaceOnUse">
<stop offset="0.13627" stop-color="#1F3A51"/>
<stop offset="1" stop-color="#1A94FF"/>
</linearGradient>
</defs>
</svg>
